<svg aria-hidden="true" style="position: absolute; width: 0; height: 0; overflow: hidden;" version="1.1" xmlns="http://www.w3.org/2000/svg" xmlns:xlink="http://www.w3.org/1999/xlink">
<defs>
<symbol id="icon-icon-frontend-mentor" viewBox="0 0 36 32">
<path fill="#fff" style="fill: var(--color1, #fff)" d="M18.204 0.32c-0.568 0.012-1.023 0.474-1.024 1.043v19.85c0 0.576 0.467 1.043 1.043 1.043s1.043-0.467 1.043-1.043v0-19.85c0-0 0-0 0-0 0-0.576-0.467-1.043-1.043-1.043-0.006 0-0.013 0-0.019 0h0.001zM34.003 6.266c-0.144 0.004-0.279 0.036-0.402 0.092l0.007-0.003-8.96 4c-0.365 0.168-0.615 0.532-0.615 0.953s0.249 0.785 0.608 0.95l0.006 0.003 8.96 4.013c0.119 0.051 0.257 0.081 0.403 0.081 0.576 0 1.043-0.467 1.043-1.043 0-0.413-0.24-0.77-0.589-0.939l-0.006-0.003-6.827-3.058 6.827-3.048c0.367-0.168 0.617-0.533 0.617-0.955 0-0.153-0.033-0.298-0.091-0.429l0.003 0.007c-0.168-0.367-0.532-0.618-0.955-0.618-0.011 0-0.021 0-0.032 0l0.002-0zM1.907 13.444c-0.005-0-0.010-0-0.016-0-0.578 0-1.046 0.468-1.046 1.046 0 0.092 0.012 0.181 0.034 0.266l-0.002-0.007c2.475 9.525 11.091 16.179 20.945 16.179 0.577 0 1.044-0.468 1.044-1.044s-0.468-1.044-1.044-1.044v0c-0.002 0-0.004 0-0.006 0-9.043 0-16.652-6.139-18.887-14.478l-0.031-0.137c-0.119-0.446-0.516-0.771-0.99-0.78h-0.001v-0.001z"></path>
</symbol>
<symbol id="icon-icon-github" viewBox="0 0 33 32">
<path fill="#fff" style="fill: var(--color1, #fff)" d="M16.405 0c-9.064 0-16.405 7.341-16.405 16.405 0 7.259 4.696 13.389 11.217 15.563 0.82 0.144 1.127-0.348 1.127-0.779 0-0.389-0.020-1.681-0.020-3.055-4.121 0.759-5.188-1.005-5.516-1.928-0.184-0.472-0.984-1.928-1.681-2.317-0.573-0.307-1.395-1.067-0.021-1.087 1.293-0.020 2.215 1.189 2.523 1.681 1.476 2.48 3.835 1.784 4.779 1.353 0.143-1.067 0.573-1.784 1.045-2.195-3.651-0.409-7.464-1.824-7.464-8.099 0-1.784 0.636-3.261 1.68-4.409-0.163-0.411-0.737-2.092 0.165-4.347 0 0 1.373-0.431 4.511 1.68 1.313-0.368 2.707-0.553 4.101-0.553s2.789 0.185 4.101 0.555c3.137-2.133 4.512-1.681 4.512-1.681 0.901 2.255 0.328 3.936 0.164 4.347 1.045 1.148 1.68 2.604 1.68 4.409 0 6.295-3.833 7.689-7.484 8.099 0.595 0.513 1.107 1.497 1.107 3.036 0 2.193-0.020 3.957-0.020 4.511 0 0.431 0.308 0.944 1.128 0.779 6.551-2.26 11.173-8.371 11.176-15.562v-0c0-9.064-7.341-16.405-16.404-16.405z"></path>
</symbol>
<symbol id="icon-icon-linkedin" viewBox="0 0 33 32">
<path fill="#fff" style="fill: var(--color1, #fff)" d="M7.401 4.405c-1.52 0-2.756 1.235-2.756 2.752 0 1.52 1.237 2.755 2.756 2.755 1.484-0.048 2.669-1.262 2.669-2.753s-1.185-2.706-2.665-2.753l-0.004-0zM5.023 11.997v15.271h4.749l0.001-15.271h-4.751zM12.753 11.997v15.269l4.739 0.003 0.003-7.557c0-1.939 0.337-3.921 2.843-3.921 2.468 0 2.468 2.34 2.468 4.048v7.428l4.745-0.001v-8.373c0-3.779-0.689-7.276-5.693-7.276-2.351 0-3.888 1.329-4.491 2.467h-0.067v-2.087h-4.547zM29.913 32h-27.271c-1.301 0-2.36-1.036-2.36-2.309v-27.383c0-1.273 1.059-2.308 2.36-2.308h27.271c1.307 0 2.369 1.035 2.369 2.307v27.384c0 1.273-1.063 2.309-2.369 2.309z"></path>
</symbol>
<symbol id="icon-icon-twitter" viewBox="0 0 38 32">
<path fill="#fff" style="fill: var(--color1, #fff)" d="M37.587 4.328c-1.278 0.581-2.759 1.004-4.313 1.194l-0.074 0.007c1.581-0.957 2.769-2.427 3.345-4.175l0.015-0.054c-1.397 0.844-3.023 1.488-4.755 1.838l-0.098 0.017c-1.399-1.492-3.382-2.421-5.582-2.421-4.222 0-7.645 3.423-7.645 7.645 0 0.62 0.074 1.222 0.213 1.799l-0.011-0.052c-6.366-0.329-11.965-3.354-15.72-7.945l-0.031-0.039c-0.65 1.1-1.034 2.424-1.034 3.837 0 0.001 0 0.002 0 0.003v-0c0 0.002 0 0.004 0 0.006 0 2.639 1.337 4.966 3.371 6.34l0.027 0.017c-1.277-0.042-2.463-0.392-3.499-0.977l0.038 0.020v0.098c0 0 0 0.001 0 0.001 0 3.686 2.609 6.763 6.082 7.485l0.050 0.009c-0.603 0.17-1.296 0.267-2.011 0.267-0.51 0-1.008-0.050-1.49-0.144l0.049 0.008c1.006 3.060 3.809 5.242 7.132 5.305l0.007 0c-2.58 2.040-5.88 3.272-9.468 3.272-0.008 0-0.016 0-0.025-0h0.001c-0.608 0-1.219-0.035-1.824-0.107 3.304 2.153 7.347 3.434 11.689 3.434 0.008 0 0.016 0 0.024 0h-0.001c14.059 0 21.744-11.643 21.744-21.742 0-0.328-0.006-0.659-0.021-0.987 1.5-1.094 2.764-2.403 3.775-3.899l0.035-0.055 0.003-0.005z"></path>
</symbol>
<symbol id="icon-pattern-circle" viewBox="0 0 32 32">
<path fill="#fff" style="fill: var(--color1, #fff)" d="M37.587 4.328c-1.278 0.581-2.759 1.004-4.313 1.194l-0.074 0.007c1.581-0.957 2.769-2.427 3.345-4.175l0.015-0.054c-1.397 0.844-3.023 1.488-4.755 1.838l-0.098 0.017c-1.399-1.492-3.382-2.421-5.582-2.421-4.222 0-7.645 3.423-7.645 7.645 0 0.62 0.074 1.222 0.213 1.799l-0.011-0.052c-6.366-0.329-11.965-3.354-15.72-7.945l-0.031-0.039c-0.65 1.1-1.034 2.424-1.034 3.837 0 0.001 0 0.002 0 0.003v-0c0 0.002 0 0.004 0 0.006 0 2.639 1.337 4.966 3.371 6.34l0.027 0.017c-1.277-0.042-2.463-0.392-3.499-0.977l0.038 0.020v0.098c0 0 0 0.001 0 0.001 0 3.686 2.609 6.763 6.082 7.485l0.050 0.009c-0.603 0.17-1.296 0.267-2.011 0.267-0.51 0-1.008-0.050-1.49-0.144l0.049 0.008c1.006 3.060 3.809 5.242 7.132 5.305l0.007 0c-2.58 2.040-5.88 3.272-9.468 3.272-0.008 0-0.016 0-0.025-0h0.001c-0.608 0-1.219-0.035-1.824-0.107 3.304 2.153 7.347 3.434 11.689 3.434 0.008 0 0.016 0 0.024 0h-0.001c14.059 0 21.744-11.643 21.744-21.742 0-0.328-0.006-0.659-0.021-0.987 1.5-1.094 2.764-2.403 3.775-3.899l0.035-0.055 0.003-0.005z"></path>
</symbol>
<symbol id="icon-pattern-rings" viewBox="0 0 131 32">
<path fill="#fff" style="fill: var(--color1, #fff)" d="M37.587 4.328c-1.278 0.581-2.759 1.004-4.313 1.194l-0.074 0.007c1.581-0.957 2.769-2.427 3.345-4.175l0.015-0.054c-1.397 0.844-3.023 1.488-4.755 1.838l-0.098 0.017c-1.399-1.492-3.382-2.421-5.582-2.421-4.222 0-7.645 3.423-7.645 7.645 0 0.62 0.074 1.222 0.213 1.799l-0.011-0.052c-6.366-0.329-11.965-3.354-15.72-7.945l-0.031-0.039c-0.65 1.1-1.034 2.424-1.034 3.837 0 0.001 0 0.002 0 0.003v-0c0 0.002 0 0.004 0 0.006 0 2.639 1.337 4.966 3.371 6.34l0.027 0.017c-1.277-0.042-2.463-0.392-3.499-0.977l0.038 0.020v0.098c0 0 0 0.001 0 0.001 0 3.686 2.609 6.763 6.082 7.485l0.050 0.009c-0.603 0.17-1.296 0.267-2.011 0.267-0.51 0-1.008-0.050-1.49-0.144l0.049 0.008c1.006 3.060 3.809 5.242 7.132 5.305l0.007 0c-2.58 2.040-5.88 3.272-9.468 3.272-0.008 0-0.016 0-0.025-0h0.001c-0.608 0-1.219-0.035-1.824-0.107 3.304 2.153 7.347 3.434 11.689 3.434 0.008 0 0.016 0 0.024 0h-0.001c14.059 0 21.744-11.643 21.744-21.742 0-0.328-0.006-0.659-0.021-0.987 1.5-1.094 2.764-2.403 3.775-3.899l0.035-0.055 0.003-0.005z"></path>
</symbol>
</defs>
</svg>
